{
    "accessors" : [
        {
            "bufferView" : 0, 
            "componentType" : 5123, 
            "count" : 153156, 
            "max" : [
                25531
            ], 
            "min" : [
                0
            ], 
            "type" : "SCALAR"
        }, 
        {
            "bufferView" : 1, 
            "componentType" : 5126, 
            "count" : 25532, 
            "max" : [
                5.121127128601074, 
                0.13990257680416107, 
                0.24844449758529663
            ], 
            "min" : [
                0.0529971718788147, 
                -0.13990803062915802, 
                -0.7086665034294128
            ], 
            "type" : "VEC3"
        }, 
        {
            "bufferView" : 2, 
            "componentType" : 5126, 
            "count" : 25532, 
            "max" : [
                1.0, 
                0.999969482421875, 
                1.0
            ], 
            "min" : [
                -1.0, 
                -0.999969482421875, 
                -0.999969482421875
            ], 
            "type" : "VEC3"
        }, 
        {
            "bufferView" : 3, 
            "componentType" : 5121, 
            "count" : 6, 
            "max" : [
                3
            ], 
            "min" : [
                0
            ], 
            "type" : "SCALAR"
        }, 
        {
            "bufferView" : 4, 
            "componentType" : 5126, 
            "count" : 4, 
            "max" : [
                0.784931480884552, 
                0.0, 
                0.869612455368042
            ], 
            "min" : [
                -0.4150685667991638, 
                0.0, 
                -0.33038753271102905
            ], 
            "type" : "VEC3"
        }, 
        {
            "bufferView" : 5, 
            "componentType" : 5126, 
            "count" : 4, 
            "max" : [
                0.0, 
                1.0, 
                -0.0
            ], 
            "min" : [
                0.0, 
                1.0, 
                -0.0
            ], 
            "type" : "VEC3"
        }, 
        {
            "bufferView" : 6, 
            "componentType" : 5123, 
            "count" : 2880, 
            "max" : [
                481
            ], 
            "min" : [
                0
            ], 
            "type" : "SCALAR"
        }, 
        {
            "bufferView" : 7, 
            "componentType" : 5126, 
            "count" : 482, 
            "max" : [
                1.000000238418579, 
                1.0, 
                1.0000003576278687
            ], 
            "min" : [
                -0.9999998211860657, 
                -1.0, 
                -1.0
            ], 
            "type" : "VEC3"
        }, 
        {
            "bufferView" : 8, 
            "componentType" : 5126, 
            "count" : 482, 
            "max" : [
                1.0, 
                1.0, 
                1.0
            ], 
            "min" : [
                -1.0, 
                -1.0, 
                -1.0
            ], 
            "type" : "VEC3"
        }, 
        {
            "bufferView" : 9, 
            "componentType" : 5126, 
            "count" : 2, 
            "max" : [
                1.625
            ], 
            "min" : [
                0.0
            ], 
            "type" : "SCALAR"
        }, 
        {
            "bufferView" : 10, 
            "componentType" : 5126, 
            "count" : 6, 
            "max" : [
                5.331021308898926, 
                0.17825070023536682, 
                -0.0
            ], 
            "min" : [
                -0.31659507751464844, 
                0.0, 
                -0.1252061277627945
            ], 
            "type" : "VEC3"
        }
    ], 
    "animations" : [
        {
            "channels" : [
                {
                    "sampler" : 0, 
                    "target" : {
                        "node" : 3, 
                        "path" : "translation"
                    }
                }
            ], 
            "samplers" : [
                {
                    "input" : 9, 
                    "interpolation" : "CUBICSPLINE", 
                    "output" : 10
                }
            ]
        }
    ], 
    "asset" : {
        "generator" : "Khronos Blender glTF 2.0 exporter", 
        "version" : "2.0"
    }, 
    "bufferViews" : [
        {
            "buffer" : 0, 
            "byteLength" : 306312, 
            "byteOffset" : 0, 
            "target" : 34963
        }, 
        {
            "buffer" : 0, 
            "byteLength" : 306384, 
            "byteOffset" : 306312, 
            "target" : 34962
        }, 
        {
            "buffer" : 0, 
            "byteLength" : 306384, 
            "byteOffset" : 612696, 
            "target" : 34962
        }, 
        {
            "buffer" : 0, 
            "byteLength" : 6, 
            "byteOffset" : 919080, 
            "target" : 34963
        }, 
        {
            "buffer" : 0, 
            "byteLength" : 48, 
            "byteOffset" : 919088, 
            "target" : 34962
        }, 
        {
            "buffer" : 0, 
            "byteLength" : 48, 
            "byteOffset" : 919136, 
            "target" : 34962
        }, 
        {
            "buffer" : 0, 
            "byteLength" : 5760, 
            "byteOffset" : 919184, 
            "target" : 34963
        }, 
        {
            "buffer" : 0, 
            "byteLength" : 5784, 
            "byteOffset" : 924944, 
            "target" : 34962
        }, 
        {
            "buffer" : 0, 
            "byteLength" : 5784, 
            "byteOffset" : 930728, 
            "target" : 34962
        }, 
        {
            "buffer" : 0, 
            "byteLength" : 8, 
            "byteOffset" : 936512
        }, 
        {
            "buffer" : 0, 
            "byteLength" : 72, 
            "byteOffset" : 936520
        }
    ], 
    "buffers" : [
        {
            "byteLength" : 936592, 
            "uri" : "watertextblend.bin"
        }
    ], 
    "materials" : [
        {
            "name" : "Material.003", 
            "pbrMetallicRoughness" : {}
        }
    ], 
    "meshes" : [
        {
            "name" : "CUText", 
            "primitives" : [
                {
                    "attributes" : {
                        "NORMAL" : 2, 
                        "POSITION" : 1
                    }, 
                    "indices" : 0
                }
            ]
        }, 
        {
            "name" : "Plane", 
            "primitives" : [
                {
                    "attributes" : {
                        "NORMAL" : 5, 
                        "POSITION" : 4
                    }, 
                    "indices" : 3
                }
            ]
        }, 
        {
            "name" : "Sphere", 
            "primitives" : [
                {
                    "attributes" : {
                        "NORMAL" : 8, 
                        "POSITION" : 7
                    }, 
                    "indices" : 6, 
                    "material" : 0
                }
            ]
        }
    ], 
    "nodes" : [
        {
            "name" : "Camera", 
            "rotation" : [
                0.6427342891693115, 
                -0.0122831454500556, 
                0.010308251716196537, 
                0.7659213542938232
            ], 
            "scale" : [
                1.0, 
                0.9999999403953552, 
                1.0
            ], 
            "translation" : [
                2.1314945220947266, 
                1.7579538822174072, 
                7.232485771179199
            ]
        }, 
        {
            "name" : "Lamp", 
            "rotation" : [
                0.16907575726509094, 
                0.7558802962303162, 
                -0.27217137813568115, 
                0.570947527885437
            ], 
            "scale" : [
                1.0, 
                1.0, 
                0.9999999403953552
            ], 
            "translation" : [
                4.076245307922363, 
                5.903861999511719, 
                -1.0054539442062378
            ]
        }, 
        {
            "mesh" : 1, 
            "name" : "Plane", 
            "scale" : [
                6.0, 
                6.0, 
                6.0
            ], 
            "translation" : [
                1.448594570159912, 
                -0.4287709891796112, 
                -1.960564136505127
            ]
        }, 
        {
            "mesh" : 2, 
            "name" : "Sphere", 
            "scale" : [
                0.10000002384185791, 
                0.10000002384185791, 
                0.10000002384185791
            ], 
            "translation" : [
                -0.31659507751464844, 
                0.17825070023536682, 
                -0.1252061277627945
            ]
        }, 
        {
            "mesh" : 0, 
            "name" : "Text", 
            "rotation" : [
                0.7071068286895752, 
                0.0, 
                -0.0, 
                0.7071068286895752
            ], 
            "translation" : [
                -0.04673372209072113, 
                -0.16542673110961914, 
                -0.15180613100528717
            ]
        }
    ], 
    "scene" : 0, 
    "scenes" : [
        {
            "name" : "Scene", 
            "nodes" : [
                2, 
                3, 
                4, 
                1, 
                0
            ]
        }
    ]
}
